# AST/ASF file generated using VICON BodyLanguage
# -----------------------------------------------
:version 1.10
:name VICON
:units
  mass 1.0
  length 0.45
  angle deg
:documentation
   .ast/.asf automatically generated from VICON data using
   VICON BodyBuilder and BodyLanguage model FoxedUp or BRILLIANT.MOD
:root
   order TX TY TZ RX RY RZ
   axis XYZ
   position 0 0 0  
   orientation 0 0 0 
:bonedata
  begin
     id 1 
     name lhipjoint
     direction 0.729592 -0.560644 0.39163 
     length 2.81907 
     axis 0 0 0  XYZ
  end
  begin
     id 2 
     name lfemur
     direction 0.34202 -0.939693 0  
     length 5.92797  
     axis 0 0 20  XYZ
    dof rx ry rz
    limits (-160.0 20.0)
           (-70.0 70.0)
           (-60.0 70.0)
  end
  begin
     id 3 
     name ltibia
     direction 0.34202 -0.939693 0   
     length 7.88118   
     axis 0 0 20   XYZ
    dof rx
    limits (-10.0 170.0)
  end
  begin
     id 4 
     name lfoot
     direction 0.0476411 -0.130893 0.990251   
     length 1.97348   
     axis -90 7.62852e-016 20   XYZ
    dof rx rz
    limits (-45.0 90.0)
           (-70.0 20.0)
  end
  begin
     id 5 
     name ltoes
     direction 1.53635e-011 -4.21786e-011 1   
     length 0.999366   
     axis -90 7.62852e-016 20   XYZ
    dof rx
    limits (-90.0 20.0)
  end
  begin
     id 6 
     name rhipjoint
     direction -0.702143 -0.583724 0.407752   
     length 2.70761  
     axis 0 0 0  XYZ 
  end
  begin
     id 7 
     name rfemur
     direction -0.34202 -0.939693 0   
     length 5.98021   
     axis 0 0 -20   XYZ
    dof rx ry rz
    limits (-160.0 20.0)
           (-70.0 70.0)
           (-70.0 60.0)
  end
  begin
     id 8 
     name rtibia
     direction -0.34202 -0.939693 0   
     length 7.66627   
     axis 0 0 -20   XYZ
    dof rx
    limits (-10.0 170.0)
 end
 begin
     id 9 
     name rfoot
     direction -0.0516088 -0.141794 0.98855   
     length 2.01387  
     axis -90 -7.62852e-016 -20   XYZ
    dof rx rz
    limits (-45.0 90.0)
           (-20.0 70.0)
  end
  begin
     id 10 
     name rtoes
     direction -1.53568e-011 -4.21939e-011 1   
     length 1.01862   
     axis -90 -7.62852e-016 -20   XYZ
    dof rx
    limits (-90.0 20.0)
  end
  begin
     id 11 
     name lowerback
     direction -0.0436953 0.98817 -0.147007   
     length 1.83615   
     axis 0 0 0   XYZ
    dof rx ry rz
    limits (-20.0 45.0)
           (-30.0 30.0)
           (-30.0 30.0)
  end
  begin
     id 12 
     name upperback
     direction 0.0239184 0.998197 0.0550483   
     length 1.80285   
     axis 0 0 0   XYZ
    dof rx ry rz
    limits (-20.0 45.0)
           (-30.0 30.0)
           (-30.0 30.0)
  end
  begin
     id 13 
     name thorax
     direction 0.0460768 0.990713 0.127927   
     length 1.87059   
     axis 0 0 0   XYZ
    dof rx ry rz
    limits (-20.0 45.0)
           (-30.0 30.0)
           (-30.0 30.0)
  end
  begin
     id 14 
     name lowerneck
     direction -0.0234223 0.997727 0.0631897   
     length 1.79511   
     axis 0 0 0   XYZ
    dof rx ry rz
    limits (-20.0 45.0)
           (-30.0 30.0)
           (-30.0 30.0)
  end
  begin
     id 15 
     name upperneck
     direction 0.0345303 0.984409 -0.172474   
     length 1.80359   
     axis 0 0 0   XYZ
    dof rx ry rz
    limits (-20.0 45.0)
           (-30.0 30.0)
           (-30.0 30.0)
  end
  begin
     id 16
     name head
     direction 0.00973222 0.9978 -0.0655778  
     length 1.81938  
     axis 0 0 0   XYZ
    dof rx ry rz
    limits (-20.0 45.0)
           (-30.0 30.0)
           (-30.0 30.0)
  end
  begin
     id 17 
     name lclavicle
     direction 0.971201 0.212597 -0.10757  
     length 3.74698  
     axis 0 0 0   XYZ
    dof ry rz
    limits (-20.0 10.0)
           (0.0 20.0)
  end
  begin
     id 18 
     name lhumerus
     direction 1 -4.4896e-011 1.42684e-027   
     length 4.83799   
     axis 180 -30 -90   XYZ
    dof rx ry rz
    limits (-60.0 90.0)
           (-90.0 90.0)
           (-90.0 90.0)
  end
  begin
     id 19
     name lradius
     direction 1 -4.48978e-011 1.53407e-026   
     length 2.68259   
     axis 180 -30 -90   XYZ
    dof rx
    limits (-10.0 170.0)
  end
  begin
     id 20
     name lwrist
     direction 1 -4.48982e-011 3.34345e-026   
     length 1.34129   
     axis -2.22354e-014 90 90   XYZ
    dof ry
    limits (-180.0 0.0)
 end
  begin
     id 21 
     name lhand
     direction 1 -4.48992e-011 6.6869e-026   
     length 0.724765   
     axis -4.26681e-014 90 90   XYZ
    dof rx rz
    limits (-90.0 90.0)
           (-45.0 45.0)
  end
  begin
     id 22 
     name lfingers
     direction 1 -4.48965e-011 1.33738e-025   
     length 0.584325   
     axis -8.53362e-014 90 90   XYZ
    dof rx
    limits (0.0 90.0)
  end
  begin
     id 23
     name lthumb
     direction 0.707107 -6.34915e-011 0.707107   
     length 0.838977   
     axis -90 45 2.85299e-015   XYZ
    dof rx rz
    limits (-45.0 45.0)
           (-45.0 45.0)
  end
  begin
     id 24 
     name rclavicle
     direction -0.987829 0.146084 -0.0534135   
     length 3.83678  
     axis 0 0 0   XYZ 
    dof ry rz
    limits (-10.0 20.0)
           (-20.0 0.0)
  end
  begin
     id 25 
     name rhumerus
     direction -1 -4.48963e-011 -3.4086e-018  
     length 4.61639   
     axis 180 30 90   XYZ
    dof rx ry rz
    limits (-90.0 60.0)
           (-90.0 90.0)
           (-90.0 90.0)
  end
  begin
     id 26 
     name rradius
     direction -1 -4.48983e-011 1.36226e-026   
     length 2.86915   
     axis 180 30 90   XYZ
    dof rx
    limits (-10.0 170.0)
  end
  begin
     id 27 
     name rwrist
     direction -1 -4.48927e-011 3.34345e-026   
     length 1.43458   
     axis -2.22354e-014 -90 -90   XYZ
    dof ry
    limits (-180.0 0.0)
  end
  begin
     id 28
     name rhand
     direction -1 -4.49071e-011 6.6869e-026   
     length 0.726007   
     axis -4.26681e-014 -90 -90   XYZ
    dof rx rz
    limits (-90.0 90.0)
           (-45.0 45.0)
  end
  begin
     id 29
     name rfingers
     direction -1 -4.48886e-011 1.33738e-025   
     length 0.585326   
     axis -8.53362e-014 -90 -90   XYZ
    dof rx
    limits (0.0 90.0)
  end
  begin
     id 30
     name rthumb
     direction -0.707107 -6.34932e-011 0.707107   
     length 0.840414   
     axis -90 -45 -2.85299e-015   XYZ
    dof rx rz
    limits (-45.0 45.0)
           (-45.0 45.0)
  end
:hierarchy
  begin
    root lhipjoint rhipjoint lowerback
    lhipjoint lfemur
    lfemur ltibia
    ltibia lfoot
    lfoot ltoes
    rhipjoint rfemur
    rfemur rtibia
    rtibia rfoot
    rfoot rtoes
    lowerback upperback
    upperback thorax
    thorax lowerneck lclavicle rclavicle
    lowerneck upperneck
    upperneck head
    lclavicle lhumerus
    lhumerus lradius
    lradius lwrist
    lwrist lhand lthumb
    lhand lfingers
    rclavicle rhumerus
    rhumerus rradius
    rradius rwrist
    rwrist rhand rthumb
    rhand rfingers
  end

#!OML:ASF F:\VICON\USERDATA\INSTALL\rory3\rory3.ASF
:FULLY-SPECIFIED
:DEGREES
496
root -0.556989 15.8505 35.2946 -0.150202 -3.29257 3.61235
lowerback 11.4299 1.38097 -6.57989
upperback -4.75684 0.793473 0.0677716
thorax -11.7651 0.880659 3.6174
lowerneck -9.55741 -6.54841 -5.85078
upperneck 20.5647 -9.19031 5.13201
head 8.47585 -4.32585 1.72465
rclavicle -8.93289e-015 3.37934e-015
rhumerus -40.8939 -10.0297 -78.9335
rradius 15.6114
rwrist 19.0708
rhand -7.99778 20.9153
rfingers 7.12502
rthumb 17.911 -8.27995
lclavicle -8.93289e-015 3.37934e-015
lhumerus -37.8931 10.2736 80.33
lradius 19.61
lwrist -4.56337
lhand -4.72438 19.9445
lfingers 7.12502
lthumb 21.0582 48.8211
rfemur -2.15453 0.402078 16.1812
rtibia 55.1117
rfoot 20.5498 -5.16167
rtoes 11.6562
lfemur -19.322 -10.5774 -27.4396
ltibia 27.561
lfoot -4.39869 7.59234
ltoes 32.0567
497
root -0.532394 15.8751 35.4341 -0.171434 -3.57078 4.12748
lowerback 11.3709 1.39701 -7.05256
upperback -4.76946 0.730107 -0.0417265
thorax -11.7494 0.880909 3.77783
lowerneck -9.5612 -6.43908 -5.73478
upperneck 20.5558 -9.00442 4.89076
head 8.44477 -4.25281 1.64708
rclavicle -1.51946e-014 1.59028e-014
rhumerus -41.2846 -9.83488 -78.8761
rradius 15.2082
rwrist 19.7386
rhand -7.44813 20.6595
rfingers 7.12502
rthumb 18.4398 -8.48652
lclavicle -1.51946e-014 1.59028e-014
lhumerus -37.7349 9.66538 80.6988
lradius 19.9509
lwrist -3.87531
lhand -4.84004 19.9079
lfingers 7.12502
lthumb 20.9471 48.7968
rfemur -4.04985 0.262855 15.3366
rtibia 57.7023
rfoot 23.3212 -6.82601
rtoes 15.5702
lfemur -18.2877 -10.4693 -28.2012
ltibia 26.8047
lfoot -4.72939 7.71813
ltoes 33.1444
498
root -0.511825 15.891 35.5702 -0.243101 -3.84756 4.65242
lowerback 10.9441 1.43848 -7.37835
upperback -4.46742 0.759498 -0.266435
thorax -11.1585 0.880662 3.71495
lowerneck -9.95076 -6.39404 -5.55149
upperneck 20.4575 -8.93206 4.8166
head 8.46589 -4.20451 1.58921
rclavicle -5.7896e-015 -8.94531e-015
rhumerus -41.2583 -9.78503 -79.0794
rradius 14.9448
rwrist 20.2834
rhand -6.84916 20.5308
rfingers 7.12502
rthumb 19.0159 -8.5596
lclavicle -5.7896e-015 -8.94531e-015
lhumerus -37.0394 9.14821 80.9821
lradius 20.204
lwrist -3.4083
lhand -4.96744 19.7863
lfingers 7.12502
lthumb 20.8247 48.6887
rfemur -5.85645 0.0764756 14.5248
rtibia 60.1262
rfoot 25.3961 -8.72508
rtoes 19.7574
lfemur -17.3168 -10.2929 -28.963
ltibia 26.2208
lfoot -5.15785 7.75209
ltoes 34.096
499
root -0.502979 15.8952 35.68 -0.304209 -4.21381 4.5546
lowerback 11.4433 1.48146 -7.4446
upperback -4.64657 0.766445 -0.152058
thorax -11.6681 0.91622 3.87023
lowerneck -9.98699 -6.19087 -5.40882
upperneck 20.6465 -8.62897 4.56623
head 8.50045 -4.07282 1.51523
rclavicle -3.2551e-015 -8.74653e-015
rhumerus -41.8669 -9.05416 -79.2961
rradius 14.7865
rwrist 20.5792
rhand -6.28308 20.2486
rfingers 7.12502
rthumb 19.5602 -8.78741
lclavicle -3.2551e-015 -8.74653e-015
lhumerus -37.194 9.06229 81.0247
lradius 20.6158
lwrist -3.19144
lhand -4.90222 19.6429
lfingers 7.12502
lthumb 20.8874 48.5384
rfemur -7.75097 0.226151 14.6726
rtibia 62.4038
rfoot 25.9014 -11.942
rtoes 27.2177
lfemur -16.4753 -9.8002 -28.9885
ltibia 25.6686
lfoot -5.30596 7.67809
ltoes 33.8654
500
root -0.49638 15.9002 35.7934 -0.40668 -4.49265 4.35998
lowerback 11.7295 1.48613 -7.37956
upperback -4.65721 0.770466 -0.0342607
thorax -11.8537 0.92563 3.96021
lowerneck -9.9612 -6.12049 -5.46012
upperneck 20.6563 -8.50589 4.48789
head 8.49107 -4.027 1.51223
rclavicle -5.90142e-015 -6.95746e-015
rhumerus -42.211 -8.57031 -79.4764
rradius 14.6867
rwrist 21.0564
rhand -5.83377 19.9441
rfingers 7.12502
rthumb 19.9921 -9.04747
lclavicle -5.90142e-015 -6.95746e-015
lhumerus -37.0888 8.901 81.1168
lradius 21.028
lwrist -2.88756
lhand -4.9433 19.5359
lfingers 7.12502
lthumb 20.8479 48.4357
rfemur -9.36752 0.293059 14.9724
rtibia 64.4386
rfoot 24.5252 -14.7261
rtoes 33.8576
lfemur -15.6369 -9.33784 -28.91
ltibia 25.2122
lfoot -5.50898 7.48999
ltoes 34.3467
501
root -0.476503 15.8974 35.9237 -0.460062 -4.53081 4.95333
lowerback 11.6206 1.41878 -7.83702
upperback -4.61534 0.596181 -0.211564
thorax -11.7282 0.863207 4.06235
lowerneck -10.1211 -6.03558 -5.3801
upperneck 20.7598 -8.38258 4.40691
head 8.54115 -3.96689 1.48072
rclavicle 7.21837e-015 -1.78906e-015
rhumerus -42.509 -8.34804 -79.5884
rradius 14.6224
rwrist 21.867
rhand -5.49499 19.8712
rfingers 7.12502
rthumb 20.3178 -9.08603
lclavicle 7.21837e-015 -1.78906e-015
lhumerus -36.9364 8.35782 81.3683
lradius 21.5153
lwrist -2.18111
lhand -5.16307 19.4877
lfingers 7.12502
lthumb 20.6367 48.4106
rfemur -10.7912 -0.195755 14.1156
rtibia 66.2764
rfoot 22.431 -14.5417
rtoes 34.9766
lfemur -14.8039 -9.09735 -29.8328
ltibia 24.9123
lfoot -5.7791 7.40122
ltoes 33.3172
502
root -0.46054 15.8945 36.0407 -0.485165 -4.65339 5.45321
lowerback 11.7177 1.38094 -8.28747
upperback -4.65801 0.44541 -0.33432
thorax -11.8267 0.824614 4.21314
lowerneck -10.3 -5.91838 -5.21711
upperneck 20.9734 -8.21163 4.22089
head 8.62147 -3.8872 1.40492
rclavicle 1.22501e-014 -1.09332e-014
rhumerus -42.8582 -7.81896 -79.8597
rradius 14.6437
rwrist 22.4697
rhand -5.15359 19.7604
rfingers 7.12502
rthumb 20.6458 -9.16152
lclavicle 1.22501e-014 -1.09332e-014
lhumerus -36.8905 8.04002 81.5296
lradius 21.9682
lwrist -1.59961
lhand -5.48749 19.3846
lfingers 7.12502
lthumb 20.325 48.3411
rfemur -12.3682 -0.5778 13.4637
rtibia 67.9898
rfoot 20.1005 -12.7148
rtoes 33.2964
lfemur -14.0809 -9.04931 -30.5651
ltibia 24.5646
lfoot -6.12136 7.4529
ltoes 32.9481
503
root -0.451168 15.909 36.1599 -0.5194 -4.7404 5.31257
lowerback 11.8181 1.29161 -8.20474
upperback -4.66074 0.340839 -0.22637
thorax -11.8743 0.776183 4.30876
lowerneck -10.2761 -5.81544 -5.15368
upperneck 20.9855 -8.04024 4.03554
head 8.60131 -3.82053 1.35305
rclavicle 1.16786e-014 -1.74931e-014
rhumerus -43.1431 -6.86401 -80.3714
rradius 14.6854
rwrist 22.313
rhand -5.06618 19.8514
rfingers 7.12502
rthumb 20.7298 -9.06141
lclavicle 1.16786e-014 -1.74931e-014
lhumerus -36.8232 7.9867 81.6457
lradius 22.4037
lwrist -1.38575
lhand -5.67287 19.4004
lfingers 7.12502
lthumb 20.1468 48.3757
rfemur -13.7482 -0.842259 13.7221
rtibia 69.413
rfoot 17.6006 -10.2744
rtoes 29.9185
lfemur -13.4614 -9.1872 -30.5045
ltibia 24.3139
lfoot -6.8014 7.44376
ltoes 35.1044
504
root -0.441279 15.9164 36.2811 -0.584044 -4.70479 5.41734
lowerback 11.7548 1.18242 -8.31473
upperback -4.55479 0.188262 -0.217685
thorax -11.6952 0.702343 4.41482
lowerneck -10.1365 -5.7271 -5.10284
upperneck 20.6977 -7.91002 3.99883
head 8.46763 -3.76361 1.35366
rclavicle 8.77137e-015 -1.07344e-014
rhumerus -43.3225 -5.87237 -81.0603
rradius 14.8741
rwrist 21.6947
rhand -4.94532 19.7548
rfingers 7.12502
rthumb 20.8459 -9.14528
lclavicle 8.77137e-015 -1.07344e-014
lhumerus -36.4975 7.70494 81.8462
lradius 22.7657
lwrist -1.04116
lhand -5.79854 19.5525
lfingers 7.12502
lthumb 20.026 48.5405
rfemur -15.0647 -1.2693 13.6876
rtibia 70.7086
rfoot 14.9326 -7.40622
rtoes 24.3624
lfemur -12.7285 -9.20642 -30.7802
ltibia 24.0227
lfoot -7.16132 7.36481
ltoes 35.3838
